<svg width="188" height="262" viewBox="0 0 188 262" fill="none" xmlns="http://www.w3.org/2000/svg">
<g clip-path="url(#clip0_16_1303)">
<g opacity="0.5">
<rect width="6.99766" height="6.99766" transform="matrix(0.720135 0.693834 -0.720135 0.693834 119.039 19.3789)" fill="white"/>
</g>
<g opacity="0.5">
<rect width="6.99766" height="6.99766" transform="matrix(0.720135 0.693834 -0.720135 0.693834 119.039 52.6646)" fill="white"/>
</g>
<g opacity="0.5">
<rect width="6.99766" height="6.99766" transform="matrix(0.720135 0.693834 -0.720135 0.693834 119.039 85.9504)" fill="white"/>
</g>
<g opacity="0.5">
<rect width="6.99766" height="6.99766" transform="matrix(0.720135 0.693834 -0.720135 0.693834 119.039 119.236)" fill="white"/>
</g>
<g opacity="0.5">
<rect width="6.99766" height="6.99766" transform="matrix(0.720135 0.693834 -0.720135 0.693834 119.039 152.522)" fill="white"/>
</g>
<g opacity="0.5">
<rect width="6.99766" height="6.99766" transform="matrix(0.720135 0.693834 -0.720135 0.693834 119.039 185.808)" fill="white"/>
</g>
<g opacity="0.5">
<rect width="6.99766" height="6.99766" transform="matrix(0.720135 0.693834 -0.720135 0.693834 119.039 219.094)" fill="white"/>
</g>
<g opacity="0.5">
<rect width="6.99766" height="6.99766" transform="matrix(0.720135 0.693834 -0.720135 0.693834 119.039 252.379)" fill="white"/>
</g>
<g opacity="0.5">
<rect width="6.99766" height="6.99766" transform="matrix(0.720135 0.693834 -0.720135 0.693834 159.413 19.3789)" fill="white"/>
</g>
<g opacity="0.5">
<rect width="6.99766" height="6.99766" transform="matrix(0.720135 0.693834 -0.720135 0.693834 159.413 52.6646)" fill="white"/>
</g>
<g opacity="0.5">
<rect width="6.99766" height="6.99766" transform="matrix(0.720135 0.693834 -0.720135 0.693834 159.413 85.9504)" fill="white"/>
</g>
<rect width="6.99766" height="6.99766" transform="matrix(0.720135 0.693834 -0.720135 0.693834 159.413 119.236)" fill="white"/>
<g opacity="0.5">
<rect width="6.99766" height="6.99766" transform="matrix(0.720135 0.693834 -0.720135 0.693834 159.413 152.522)" fill="white"/>
</g>
<g opacity="0.5">
<rect width="6.99766" height="6.99766" transform="matrix(0.720135 0.693834 -0.720135 0.693834 159.413 185.808)" fill="white"/>
</g>
<g opacity="0.5">
<rect width="6.99766" height="6.99766" transform="matrix(0.720135 0.693834 -0.720135 0.693834 159.413 219.094)" fill="white"/>
</g>
<g opacity="0.5">
<rect width="6.99766" height="6.99766" transform="matrix(0.720135 0.693834 -0.720135 0.693834 159.413 252.379)" fill="white"/>
</g>
<g opacity="0.5">
<rect width="6.99766" height="6.99766" transform="matrix(0.720135 0.693834 -0.720135 0.693834 79.9607 19.3789)" fill="white"/>
</g>
<g opacity="0.5">
<rect width="6.99766" height="6.99766" transform="matrix(0.720135 0.693834 -0.720135 0.693834 5.03918 19.3789)" fill="white"/>
</g>
<g opacity="0.5">
<rect width="6.99766" height="6.99766" transform="matrix(0.720135 0.693834 -0.720135 0.693834 79.9607 52.6646)" fill="white"/>
</g>
<g opacity="0.5">
<rect width="6.99766" height="6.99766" transform="matrix(0.720135 0.693834 -0.720135 0.693834 5.03918 52.6646)" fill="white"/>
</g>
<rect width="6.99766" height="6.99766" transform="matrix(0.720135 0.693834 -0.720135 0.693834 79.9607 85.9504)" fill="white"/>
<g opacity="0.5">
<rect width="6.99766" height="6.99766" transform="matrix(0.720135 0.693834 -0.720135 0.693834 5.03918 85.9504)" fill="white"/>
</g>
<g opacity="0.5">
<rect width="6.99766" height="6.99766" transform="matrix(0.720135 0.693834 -0.720135 0.693834 79.9607 119.236)" fill="white"/>
</g>
<g opacity="0.5">
<rect width="6.99766" height="6.99766" transform="matrix(0.720135 0.693834 -0.720135 0.693834 5.03918 119.236)" fill="white"/>
</g>
<g opacity="0.5">
<rect width="6.99766" height="6.99766" transform="matrix(0.720135 0.693834 -0.720135 0.693834 79.9607 152.522)" fill="white"/>
</g>
<g opacity="0.5">
<rect width="6.99766" height="6.99766" transform="matrix(0.720135 0.693834 -0.720135 0.693834 5.03918 152.522)" fill="white"/>
</g>
<rect width="6.99766" height="6.99766" transform="matrix(0.720135 0.693834 -0.720135 0.693834 79.9607 185.808)" fill="white"/>
<g opacity="0.5">
<rect width="6.99766" height="6.99766" transform="matrix(0.720135 0.693834 -0.720135 0.693834 5.03918 185.808)" fill="white"/>
</g>
<g opacity="0.5">
<rect width="6.99766" height="6.99766" transform="matrix(0.720135 0.693834 -0.720135 0.693834 79.9607 219.094)" fill="white"/>
</g>
<g opacity="0.5">
<rect width="6.99766" height="6.99766" transform="matrix(0.720135 0.693834 -0.720135 0.693834 5.03918 219.094)" fill="white"/>
</g>
<rect width="6.99766" height="6.99766" transform="matrix(0.720135 0.693834 -0.720135 0.693834 79.9607 252.379)" fill="white"/>
<g opacity="0.5">
<rect width="6.99766" height="6.99766" transform="matrix(0.720135 0.693834 -0.720135 0.693834 5.03918 252.379)" fill="white"/>
</g>
<g opacity="0.5">
<rect width="6.99766" height="6.99766" transform="matrix(0.720135 0.693834 -0.720135 0.693834 45.4131 19.3789)" fill="white"/>
</g>
<g opacity="0.5">
<rect width="6.99766" height="6.99766" transform="matrix(0.720135 0.693834 -0.720135 0.693834 45.4131 52.6646)" fill="white"/>
</g>
<g opacity="0.5">
<rect width="6.99766" height="6.99766" transform="matrix(0.720135 0.693834 -0.720135 0.693834 45.4131 85.9504)" fill="white"/>
</g>
<rect width="6.99766" height="6.99766" transform="matrix(0.720135 0.693834 -0.720135 0.693834 45.4131 119.236)" fill="white"/>
<g opacity="0.5">
<rect width="6.99766" height="6.99766" transform="matrix(0.720135 0.693834 -0.720135 0.693834 45.4131 152.522)" fill="white"/>
</g>
<g opacity="0.5">
<rect width="6.99766" height="6.99766" transform="matrix(0.720135 0.693834 -0.720135 0.693834 45.4131 185.808)" fill="white"/>
</g>
<g opacity="0.5">
<rect width="6.99766" height="6.99766" transform="matrix(0.720135 0.693834 -0.720135 0.693834 45.4131 219.094)" fill="white"/>
</g>
<g opacity="0.5">
<rect width="6.99766" height="6.99766" transform="matrix(0.720135 0.693834 -0.720135 0.693834 45.4131 252.379)" fill="white"/>
</g>
</g>
<defs>
<clipPath id="clip0_16_1303">
<rect width="188" height="262" fill="white"/>
</clipPath>
</defs>
</svg>
