<svg width="20" height="20" viewBox="0 0 20 20" fill="none" xmlns="http://www.w3.org/2000/svg">
<g id="gg:bowl">
<path id="Vector" fill-rule="evenodd" clip-rule="evenodd" d="M17.1225 3.06003C16.9662 2.9038 16.7543 2.81604 16.5333 2.81604C16.3123 2.81604 16.1004 2.9038 15.9441 3.06003L11.4741 7.53003H1.66663V9.1967H1.67329C1.85496 13.6384 5.51329 17.1842 9.99996 17.1842C14.4866 17.1842 18.145 13.6384 18.3266 9.1967H18.3333V7.53003H13.8308L17.1225 4.23836C17.2787 4.08209 17.3664 3.87017 17.3664 3.6492C17.3664 3.42823 17.2787 3.2163 17.1225 3.06003ZM11.8141 9.1967H16.6583C16.5728 10.905 15.834 12.5151 14.5947 13.6939C13.3554 14.8727 11.7104 15.5301 9.99996 15.5301C8.28954 15.5301 6.64455 14.8727 5.40524 13.6939C4.16593 12.5151 3.42712 10.905 3.34163 9.1967H11.8133H11.8141Z" fill="white"/>
</g>
</svg>
