<svg width="20" height="20" viewBox="0 0 20 20" fill="none" xmlns="http://www.w3.org/2000/svg">
<g id="mdi:safety-glasses">
<path id="Vector" d="M15 7.50004C15.925 7.50004 16.6667 8.24171 16.6667 9.16671V11.6667C16.6667 12.5917 15.925 13.3334 15 13.3334H13.1417L12.1084 12.3084C11.4834 11.6667 10.6417 11.3334 9.75004 11.3334C8.85837 11.3334 8.02504 11.6667 7.39171 12.3084L6.36671 13.3334H5.00004C4.07504 13.3334 3.33337 12.5917 3.33337 11.6667V9.16671C3.33337 8.24171 4.07504 7.50004 5.00004 7.50004H15ZM15 5.83337H5.00004C4.11599 5.83337 3.26814 6.18456 2.64302 6.80968C2.0179 7.43481 1.66671 8.28265 1.66671 9.16671H0.833374V11.6667H1.66671C1.66671 12.5508 2.0179 13.3986 2.64302 14.0237C3.26814 14.6488 4.11599 15 5.00004 15H7.08337C7.11671 14.95 7.15837 14.9 8.57504 13.4834C8.90004 13.1584 9.32504 13 9.75004 13C10.1834 13 10.6084 13.1584 10.9334 13.4834L12.425 15H15C15.8841 15 16.7319 14.6488 17.3571 14.0237C17.9822 13.3986 18.3334 12.5508 18.3334 11.6667H19.1667V9.16671H18.3334C18.3334 8.28265 17.9822 7.43481 17.3571 6.80968C16.7319 6.18456 15.8841 5.83337 15 5.83337Z" fill="white"/>
</g>
</svg>
