<svg width="20" height="20" viewBox="0 0 20 20" fill="none" xmlns="http://www.w3.org/2000/svg">
<g id="material-symbols:thermometer-outline">
<path id="Vector" d="M10 17.5C8.84726 17.5 7.86449 17.0936 7.05171 16.2808C6.23893 15.4681 5.83282 14.4856 5.83337 13.3333C5.83337 12.6667 5.97921 12.045 6.27087 11.4683C6.56254 10.8917 6.97226 10.4022 7.50004 10V5C7.50004 4.30556 7.7431 3.71528 8.22921 3.22917C8.71532 2.74306 9.3056 2.5 10 2.5C10.6945 2.5 11.2848 2.74306 11.7709 3.22917C12.257 3.71528 12.5 4.30556 12.5 5V10C13.0278 10.4028 13.4375 10.8925 13.7292 11.4692C14.0209 12.0458 14.1667 12.6672 14.1667 13.3333C14.1667 14.4861 13.7603 15.4689 12.9475 16.2817C12.1348 17.0944 11.1523 17.5006 10 17.5ZM10 15.8333C10.6945 15.8333 11.2848 15.5903 11.7709 15.1042C12.257 14.6181 12.5 14.0278 12.5 13.3333C12.5 12.9306 12.4131 12.5556 12.2392 12.2083C12.0653 11.8611 11.8189 11.5694 11.5 11.3333L10.8334 10.8333V5C10.8334 4.76389 10.7534 4.56583 10.5934 4.40583C10.4334 4.24583 10.2356 4.16611 10 4.16667C9.76393 4.16667 9.56587 4.24667 9.40587 4.40667C9.24587 4.56667 9.16615 4.76444 9.16671 5V10.8333L8.50004 11.3333C8.1806 11.5694 7.93393 11.8611 7.76004 12.2083C7.58615 12.5556 7.49949 12.9306 7.50004 13.3333C7.50004 14.0278 7.7431 14.6181 8.22921 15.1042C8.71532 15.5903 9.3056 15.8333 10 15.8333Z" fill="white"/>
</g>
</svg>
