<svg width="20" height="20" viewBox="0 0 20 20" fill="none" xmlns="http://www.w3.org/2000/svg">
<g id="carbon:chemistry">
<path id="Vector" d="M17.0194 14.7612L12.5 8.54688V2.5H13.75V1.25H6.25002V2.5H7.50002V8.54688L2.98064 14.7612C2.70804 15.1359 2.5444 15.5787 2.50783 16.0406C2.47127 16.5025 2.5632 16.9655 2.77346 17.3783C2.98371 17.7912 3.3041 18.1379 3.69916 18.38C4.09422 18.622 4.54856 18.7501 5.01189 18.75H14.9875C15.4509 18.7501 15.9052 18.622 16.3002 18.38C16.6953 18.1379 17.0157 17.7912 17.226 17.3783C17.4362 16.9655 17.5281 16.5025 17.4916 16.0406C17.455 15.5787 17.2914 15.1359 17.0188 14.7612H17.0194ZM8.75002 8.95312V2.5H11.25V8.95312L12.9206 11.25H7.07939L8.75002 8.95312ZM14.9881 17.5H5.01252C4.77989 17.4998 4.55185 17.4352 4.35357 17.3136C4.1553 17.1919 3.99449 17.0178 3.88891 16.8105C3.78332 16.6032 3.73706 16.3708 3.75524 16.1389C3.77341 15.907 3.85531 15.6846 3.99189 15.4963L6.17064 12.5H13.8294L16.0088 15.4963C16.1454 15.6846 16.2273 15.907 16.2454 16.1389C16.2636 16.3708 16.2173 16.6032 16.1118 16.8105C16.0062 17.0178 15.8454 17.1919 15.6471 17.3136C15.4488 17.4352 15.2208 17.4998 14.9881 17.5Z" fill="white"/>
</g>
</svg>
