<svg width="20" height="20" viewBox="0 0 20 20" fill="none" xmlns="http://www.w3.org/2000/svg">
<g id="mdi:jewelry-box-outline">
<path id="Vector" d="M1.66663 16.6667H18.3333V5.83337C18.3333 5.16671 18.0666 4.53337 17.6 4.06671C17.1333 3.60004 16.5 3.33337 15.8333 3.33337H4.16663C3.49996 3.33337 2.86663 3.60004 2.39996 4.06671C1.93329 4.53337 1.66663 5.16671 1.66663 5.83337V16.6667ZM16.6666 9.16671H12.5V7.50004H7.49996V9.16671H3.33329V5.83337C3.33329 5.61671 3.42496 5.41671 3.57496 5.24171C3.74996 5.09171 3.94996 5.00004 4.16663 5.00004H15.8333C16.0583 5.00004 16.25 5.09171 16.425 5.24171C16.5833 5.41671 16.6666 5.61671 16.6666 5.83337V9.16671ZM12.5 10.8334H16.6666V15H3.33329V10.8334H7.49996L9.16663 12.5H10.8333L12.5 10.8334ZM9.16663 9.16671H10.8333V10.8334H9.16663V9.16671Z" fill="white"/>
</g>
</svg>
