<svg width="14" height="14" viewBox="0 0 14 14" fill="none" xmlns="http://www.w3.org/2000/svg">
<g id="Group">
<path id="Vector" d="M1.28577 3.42859H8.42862" stroke="white" stroke-width="1.5" stroke-linecap="round" stroke-linejoin="round"/>
<path id="Vector_2" d="M10.5714 5.57148C11.7549 5.57148 12.7143 4.61209 12.7143 3.42862C12.7143 2.24516 11.7549 1.28577 10.5714 1.28577C9.38798 1.28577 8.42859 2.24516 8.42859 3.42862C8.42859 4.61209 9.38798 5.57148 10.5714 5.57148Z" stroke="white" stroke-width="1.5" stroke-linecap="round" stroke-linejoin="round"/>
<path id="Vector_3" d="M12.7143 10.5715H8.42862M4.14291 10.5715H1.28577" stroke="white" stroke-width="1.5" stroke-linecap="round" stroke-linejoin="round"/>
<path id="Vector_4" d="M6.2858 12.7143C7.46927 12.7143 8.42866 11.7549 8.42866 10.5714C8.42866 9.38798 7.46927 8.42859 6.2858 8.42859C5.10233 8.42859 4.14294 9.38798 4.14294 10.5714C4.14294 11.7549 5.10233 12.7143 6.2858 12.7143Z" stroke="white" stroke-width="1.5" stroke-linecap="round" stroke-linejoin="round"/>
</g>
</svg>
